<?xml version="1.0" encoding="UTF-8" standalone="no"?> <!-- Created with Vectornator for iOS (http://vectornator.io/) --><!DOCTYPE svg PUBLIC "-//W3C//DTD SVG 1.1//EN" "http://www.w3.org/Graphics/SVG/1.1/DTD/svg11.dtd">
<svg style="fill-rule:evenodd;clip-rule:evenodd;stroke-linecap:round;stroke-linejoin:round;" xmlns:vectornator="http://vectornator.io" xmlns:xlink="http://www.w3.org/1999/xlink" xmlns="http://www.w3.org/2000/svg" xml:space="preserve" version="1.1" viewBox="0 0 512 512">
<metadata>
<vectornator:setting key="RulersVisible" value="1"/>
<vectornator:setting key="Units" value="Pixels"/>
<vectornator:setting key="DynamicGuides" value="1"/>
<vectornator:setting key="GuidesVisible" value="1"/>
<vectornator:setting key="CMYKEnabledKey" value="0"/>
<vectornator:setting key="SnapToGuides" value="1"/>
<vectornator:setting key="GridSpacing" value="36"/>
</metadata>
<defs/>
<g id="_x33_2_x2C__PHP_x2C__File_Type_x2C__Script" vectornator:layerName="_x33_2_x2C__PHP_x2C__File_Type_x2C__Script">
<g opacity="1">
<path d="M367.309+53.245L426.374+112.496L426.146+112.714L367.811+112.758L367.266+53.289L367.309+53.245Z" opacity="1" fill="#824cb6"/>
<path d="M125.65+94.625L308.832+94.625L308.832+200.391L125.65+200.391L125.203+200.391L86.396+200.391L86.396+94.625L125.202+94.625L125.65+94.625Z" opacity="1" fill="#844eb8"/>
<path d="M426.593+112.714L426.593+458.81L125.65+458.81L125.65+200.391L308.832+200.391L308.832+94.625L125.65+94.625L125.65+53.191L367.266+53.191L367.309+53.245L367.266+53.288L367.811+112.757L426.146+112.713L426.375+112.495L426.593+112.714Z" opacity="1" fill="#58149a"/>
<g opacity="1">
<path d="M314+285.211L314+308.829L378+344.266L378+344.701L314+380.139L314+403.756L397+354.733L397+334.234L314+285.211Z" opacity="1" fill="#ffffff"/>
<path d="M249.375+413L266.93+413L304.122+252L286.567+252L249.375+413Z" opacity="1" fill="#ffffff"/>
<path d="M152+354.057L236+403.756L236+380.139L173+344.701L173+344.266L236+308.829L236+285.211L152+334.898L152+354.057Z" opacity="1" fill="#ffffff"/>
</g>
</g>
<g opacity="1">
<path d="M183.642+154.283C183.642+155.151+183.488+155.795+183.18+156.215C182.872+156.635+182.382+157.041+181.71+157.433C181.318+157.657+180.828+157.874+180.24+158.084C179.652+158.294+179.008+158.476+178.308+158.63C177.608+158.784+176.873+158.903+176.103+158.987C175.333+159.071+174.57+159.113+173.814+159.113C171.798+159.113+169.908+158.84+168.144+158.294C166.38+157.748+164.847+156.922+163.545+155.816C162.243+154.71+161.214+153.331+160.458+151.679C159.702+150.027+159.324+148.109+159.324+145.925C159.324+143.629+159.737+141.627+160.563+139.919C161.389+138.211+162.481+136.79+163.839+135.656C165.197+134.522+166.751+133.675+168.501+133.115C170.251+132.555+172.05+132.275+173.898+132.275C176.558+132.275+178.665+132.702+180.219+133.556C181.773+134.41+182.55+135.523+182.55+136.895C182.55+137.623+182.368+138.253+182.004+138.785C181.64+139.317+181.22+139.737+180.744+140.045C180.044+139.625+179.169+139.212+178.119+138.806C177.069+138.4+175.886+138.197+174.57+138.197C172.218+138.197+170.349+138.869+168.963+140.213C167.577+141.557+166.884+143.419+166.884+145.799C166.884+147.087+167.073+148.2+167.451+149.138C167.829+150.076+168.34+150.846+168.984+151.448C169.628+152.05+170.37+152.498+171.21+152.792C172.05+153.086+172.946+153.233+173.898+153.233C174.514+153.233+175.06+153.177+175.536+153.065C176.012+152.953+176.376+152.827+176.628+152.687L176.628+148.739L172.134+148.739C171.966+148.431+171.805+148.025+171.651+147.521C171.497+147.017+171.42+146.485+171.42+145.925C171.42+144.917+171.651+144.189+172.113+143.741C172.575+143.293+173.17+143.069+173.898+143.069L180.996+143.069C181.836+143.069+182.487+143.3+182.949+143.762C183.411+144.224+183.642+144.875+183.642+145.715L183.642+154.283Z" opacity="1" fill="#ffffff"/>
<path d="M187.212+145.673C187.212+143.489+187.555+141.557+188.241+139.877C188.927+138.197+189.865+136.79+191.055+135.656C192.245+134.522+193.645+133.661+195.255+133.073C196.865+132.485+198.608+132.191+200.484+132.191C202.36+132.191+204.103+132.485+205.713+133.073C207.323+133.661+208.73+134.522+209.934+135.656C211.138+136.79+212.083+138.197+212.769+139.877C213.455+141.557+213.798+143.489+213.798+145.673C213.798+147.857+213.462+149.796+212.79+151.49C212.118+153.184+211.187+154.598+209.997+155.732C208.807+156.866+207.4+157.727+205.776+158.315C204.152+158.903+202.388+159.197+200.484+159.197C198.58+159.197+196.816+158.896+195.192+158.294C193.568+157.692+192.168+156.817+190.992+155.669C189.816+154.521+188.892+153.107+188.22+151.427C187.548+149.747+187.212+147.829+187.212+145.673ZM194.772+145.673C194.772+148.221+195.29+150.125+196.326+151.385C197.362+152.645+198.748+153.275+200.484+153.275C202.248+153.275+203.648+152.645+204.684+151.385C205.72+150.125+206.238+148.221+206.238+145.673C206.238+143.153+205.727+141.263+204.705+140.003C203.683+138.743+202.29+138.113+200.526+138.113C198.79+138.113+197.397+138.736+196.347+139.982C195.297+141.228+194.772+143.125+194.772+145.673Z" opacity="1" fill="#ffffff"/>
</g>
</g>
</svg>
