<?xml version="1.0" encoding="UTF-8" standalone="no"?> <!-- Created with Vectornator for iOS (http://vectornator.io/) --><!DOCTYPE svg PUBLIC "-//W3C//DTD SVG 1.1//EN" "http://www.w3.org/Graphics/SVG/1.1/DTD/svg11.dtd">
<svg style="fill-rule:evenodd;clip-rule:evenodd;stroke-linecap:round;stroke-linejoin:round;" xmlns:vectornator="http://vectornator.io" xmlns:xlink="http://www.w3.org/1999/xlink" xmlns="http://www.w3.org/2000/svg" xml:space="preserve" version="1.1" viewBox="0 0 512 512">
<metadata>
<vectornator:setting key="RulersVisible" value="1"/>
<vectornator:setting key="Units" value="Pixels"/>
<vectornator:setting key="DynamicGuides" value="1"/>
<vectornator:setting key="GuidesVisible" value="1"/>
<vectornator:setting key="CMYKEnabledKey" value="0"/>
<vectornator:setting key="SnapToGuides" value="1"/>
<vectornator:setting key="GridSpacing" value="36"/>
</metadata>
<defs/>
<g id="_x33_2_x2C__PHP_x2C__File_Type_x2C__Script" vectornator:layerName="_x33_2_x2C__PHP_x2C__File_Type_x2C__Script">
<path d="M367.309+53.245L426.374+112.496L426.146+112.714L367.811+112.758L367.266+53.289L367.309+53.245Z" opacity="1" fill="#0b375f"/>
<path d="M125.65+94.625L308.832+94.625L308.832+200.391L125.65+200.391L125.203+200.391L86.396+200.391L86.396+94.625L125.202+94.625L125.65+94.625Z" opacity="1" fill="#0b385f"/>
<path d="M426.593+112.714L426.593+458.81L125.65+458.81L125.65+200.391L308.832+200.391L308.832+94.625L125.65+94.625L125.65+53.191L367.266+53.191L367.309+53.245L367.266+53.288L367.811+112.757L426.146+112.713L426.375+112.495L426.593+112.714Z" opacity="1" fill="#114e87"/>
<path d="M314+285.211L314+308.829L378+344.266L378+344.701L314+380.139L314+403.756L397+354.733L397+334.234L314+285.211Z" opacity="1" fill="#ffffff"/>
<path d="M249.375+413L266.93+413L304.122+252L286.567+252L249.375+413Z" opacity="1" fill="#ffffff"/>
<path d="M152+354.057L236+403.756L236+380.139L173+344.701L173+344.266L236+308.829L236+285.211L152+334.898L152+354.057Z" opacity="1" fill="#ffffff"/>
<text x="0" font-family="BalooDa-Regular" y="0" text-anchor="start" vectornator:text="MYSQL" fill="#ffffff" font-size="46" vectornator:width="198.075" opacity="1" transform="matrix(1 0 0 1 123.906 114.406)">
<tspan x="0" y="50" textLength="143.428">
MYSQL</tspan>
</text>
</g>
</svg>
