<?xml version="1.0" encoding="UTF-8" standalone="no"?> <!-- Created with Vectornator for iOS (http://vectornator.io/) --><!DOCTYPE svg PUBLIC "-//W3C//DTD SVG 1.1//EN" "http://www.w3.org/Graphics/SVG/1.1/DTD/svg11.dtd">
<svg style="fill-rule:evenodd;clip-rule:evenodd;stroke-linecap:round;stroke-linejoin:round;" xmlns:vectornator="http://vectornator.io" xmlns:xlink="http://www.w3.org/1999/xlink" xmlns="http://www.w3.org/2000/svg" xml:space="preserve" version="1.1" viewBox="0 0 512 512">
<metadata>
<vectornator:setting key="RulersVisible" value="1"/>
<vectornator:setting key="Units" value="Pixels"/>
<vectornator:setting key="DynamicGuides" value="1"/>
<vectornator:setting key="GuidesVisible" value="1"/>
<vectornator:setting key="CMYKEnabledKey" value="0"/>
<vectornator:setting key="SnapToGuides" value="1"/>
<vectornator:setting key="GridSpacing" value="36"/>
</metadata>
<defs/>
<g id="_x33_2_x2C__PHP_x2C__File_Type_x2C__Script" vectornator:layerName="_x33_2_x2C__PHP_x2C__File_Type_x2C__Script">
<g opacity="1">
<path d="M367.309+53.245L426.374+112.496L426.146+112.714L367.811+112.758L367.266+53.289L367.309+53.245Z" opacity="1" fill="#3395ff"/>
<path d="M125.65+94.625L308.832+94.625L308.832+200.391L125.65+200.391L125.203+200.391L86.396+200.391L86.396+94.625L125.202+94.625L125.65+94.625Z" opacity="1" fill="#3395ff"/>
<path d="M426.593+112.714L426.593+458.81L125.65+458.81L125.65+200.391L308.832+200.391L308.832+94.625L125.65+94.625L125.65+53.191L367.266+53.191L367.309+53.245L367.266+53.288L367.811+112.757L426.146+112.713L426.375+112.495L426.593+112.714Z" opacity="1" fill="#007aff"/>
<g opacity="1">
<path d="M314+285.211L314+308.829L378+344.266L378+344.701L314+380.139L314+403.756L397+354.733L397+334.234L314+285.211Z" opacity="1" fill="#ffffff"/>
<path d="M249.375+413L266.93+413L304.122+252L286.567+252L249.375+413Z" opacity="1" fill="#ffffff"/>
<path d="M152+354.057L236+403.756L236+380.139L173+344.701L173+344.266L236+308.829L236+285.211L152+334.898L152+354.057Z" opacity="1" fill="#ffffff"/>
</g>
</g>
<g opacity="1">
<path d="M170.118+144.791C171.294+144.791+172.197+144.518+172.827+143.972C173.457+143.426+173.772+142.593+173.772+141.473C173.772+140.409+173.443+139.59+172.785+139.016C172.127+138.442+171.168+138.155+169.908+138.155C169.46+138.155+169.089+138.162+168.795+138.176C168.501+138.19+168.2+138.225+167.892+138.281L167.892+144.791L170.118+144.791ZM167.934+158.273C167.626+158.357+167.143+158.441+166.485+158.525C165.827+158.609+165.176+158.651+164.532+158.651C163.888+158.651+163.321+158.602+162.831+158.504C162.341+158.406+161.928+158.231+161.592+157.979C161.256+157.727+161.004+157.377+160.836+156.929C160.668+156.481+160.584+155.893+160.584+155.165L160.584+135.383C160.584+134.795+160.745+134.34+161.067+134.018C161.389+133.696+161.83+133.437+162.39+133.241C163.342+132.905+164.427+132.66+165.645+132.506C166.863+132.352+168.088+132.275+169.32+132.275C173.184+132.275+176.138+133.101+178.182+134.753C180.226+136.405+181.248+138.645+181.248+141.473C181.248+142.845+181.031+144.084+180.597+145.19C180.163+146.296+179.519+147.248+178.665+148.046C177.811+148.844+176.733+149.46+175.431+149.894C174.129+150.328+172.624+150.545+170.916+150.545L167.934+150.545L167.934+158.273Z" opacity="1" fill="#ffffff"/>
<path d="M207.75+158.273C207.442+158.357+206.959+158.441+206.301+158.525C205.643+158.609+204.992+158.651+204.348+158.651C203.704+158.651+203.137+158.602+202.647+158.504C202.157+158.406+201.744+158.231+201.408+157.979C201.072+157.727+200.82+157.377+200.652+156.929C200.484+156.481+200.4+155.893+200.4+155.165L200.4+148.613L192.336+148.613L192.336+158.273C192.028+158.357+191.545+158.441+190.887+158.525C190.229+158.609+189.578+158.651+188.934+158.651C188.29+158.651+187.723+158.602+187.233+158.504C186.743+158.406+186.33+158.231+185.994+157.979C185.658+157.727+185.406+157.377+185.238+156.929C185.07+156.481+184.986+155.893+184.986+155.165L184.986+132.989C185.294+132.933+185.784+132.856+186.456+132.758C187.128+132.66+187.772+132.611+188.388+132.611C189.032+132.611+189.599+132.66+190.089+132.758C190.579+132.856+190.992+133.031+191.328+133.283C191.664+133.535+191.916+133.885+192.084+134.333C192.252+134.781+192.336+135.369+192.336+136.097L192.336+142.817L200.4+142.817L200.4+132.989C200.708+132.933+201.198+132.856+201.87+132.758C202.542+132.66+203.186+132.611+203.802+132.611C204.446+132.611+205.013+132.66+205.503+132.758C205.993+132.856+206.406+133.031+206.742+133.283C207.078+133.535+207.33+133.885+207.498+134.333C207.666+134.781+207.75+135.369+207.75+136.097L207.75+158.273Z" opacity="1" fill="#ffffff"/>
<path d="M222.744+144.791C223.92+144.791+224.823+144.518+225.453+143.972C226.083+143.426+226.398+142.593+226.398+141.473C226.398+140.409+226.069+139.59+225.411+139.016C224.753+138.442+223.794+138.155+222.534+138.155C222.086+138.155+221.715+138.162+221.421+138.176C221.127+138.19+220.826+138.225+220.518+138.281L220.518+144.791L222.744+144.791ZM220.56+158.273C220.252+158.357+219.769+158.441+219.111+158.525C218.453+158.609+217.802+158.651+217.158+158.651C216.514+158.651+215.947+158.602+215.457+158.504C214.967+158.406+214.554+158.231+214.218+157.979C213.882+157.727+213.63+157.377+213.462+156.929C213.294+156.481+213.21+155.893+213.21+155.165L213.21+135.383C213.21+134.795+213.371+134.34+213.693+134.018C214.015+133.696+214.456+133.437+215.016+133.241C215.968+132.905+217.053+132.66+218.271+132.506C219.489+132.352+220.714+132.275+221.946+132.275C225.81+132.275+228.764+133.101+230.808+134.753C232.852+136.405+233.874+138.645+233.874+141.473C233.874+142.845+233.657+144.084+233.223+145.19C232.789+146.296+232.145+147.248+231.291+148.046C230.437+148.844+229.359+149.46+228.057+149.894C226.755+150.328+225.25+150.545+223.542+150.545L220.56+150.545L220.56+158.273Z" opacity="1" fill="#ffffff"/>
</g>
</g>
</svg>
