<!DOCTYPE svg PUBLIC "-//W3C//DTD SVG 1.1//EN" "http://www.w3.org/Graphics/SVG/1.1/DTD/svg11.dtd">
<svg style="fill-rule:evenodd;clip-rule:evenodd;stroke-linecap:round;stroke-linejoin:round;"
     xmlns:vectornator="http://vectornator.io" xmlns:xlink="http://www.w3.org/1999/xlink"
     xmlns="http://www.w3.org/2000/svg" xml:space="preserve" data-v-140fcb8f="" width="240" height="25"
     viewBox="-15 -10 1000 100">
    <defs data-v-140fcb8f="" id="SvgjsDefs1150"></defs>
    <g data-v-140fcb8f="" id="SvgjsG1151" featurekey="root" fill="#ffffff"></g>
    <g data-v-140fcb8f="" id="SvgjsG1152" featurekey="symbol1" fill="#007cd7"
       transform="matrix(1.1912801271645417,0,0,1.1912801271645417,-0.002123074281347978,-0.08325506208668522)">
        <title data-v-140fcb8f="">52 all</title>
        <path data-v-140fcb8f=""
              d="M51.2,20.4c-1.2-1.3-2.5-2.6-3.9-3.7c-1.3-1-3.2-0.8-4.2,0.6c-0.2,0.3-0.4,0.6-0.5,1c-0.9,3.1-0.7,6.2-0.4,9.1 c0.2,2.8,0.5,5.4-0.5,7.5c-1.4,2.8-4.7,4.2-7.7,3.3c-3-1.2-4.7-4.4-4.1-7.5c0.5-1.6,1.2-3.2,2.1-4.6c0.5-1,1.1-2,1.6-3.1 c2.8-6.2,2.5-13.3-0.7-19.2c-0.5-0.8-1.9-3.4-4.5-3.7s-4.3,1.7-5.8,3.4c-0.3,0.3-0.6,0.7-0.9,1l-7.5,7.9C9.8,17,4.8,22.3,2.1,29 C-2,39.4,0,51.2,7.3,59.7c5.7,6.3,13.8,9.9,22.3,9.8c2.5,0,5-0.3,7.4-1C47.8,65.5,56,56.7,58.3,45.8C59.9,36.7,57.3,27.4,51.2,20.4 L51.2,20.4z M52.4,44.6c-1.8,8.7-8.3,15.7-16.8,18.1c-12.5,3.4-25.4-4-28.8-16.5c-1.3-4.9-1-10.2,0.9-14.9 c2.3-5.7,6.7-10.3,10.9-14.8L26,8.6c0.4-0.4,0.7-0.8,1.1-1.2l0.6-0.7c2.2,4.3,2.4,9.3,0.4,13.7c-0.4,0.8-0.9,1.7-1.4,2.6 c-1.2,2-2.2,4.1-2.8,6.3c-1.2,6.1,2.2,12.2,8,14.4c6,2,12.5-0.8,15.2-6.4c1.6-3.5,1.2-7.2,0.9-10.5l-0.1-0.7 C52,31.5,53.6,38.2,52.4,44.6z"></path>
    </g>
    <g data-v-140fcb8f="" id="SvgjsG1153" featurekey="text1" fill="#007cd7"
       transform="matrix(4.243052715518776,0,0,4.243052715518776,84.90235279137698,-32.38297387909518)">
        <path data-v-140fcb8f=""
              d="M16.885 23.066405 q-0.703125 0.29296875 -1.416015625 0.52734375 t-1.4746 0.40527 t-1.6064 0.25879 t-1.8115 0.087891 q-2.05078125 0 -3.774414063 -0.439453125 t-2.9688 -1.3232 t-1.9385 -2.207 t-0.69336 -3.0908 t0.69336 -3.0908 t1.9385 -2.207 t2.9688 -1.3232 t3.7744 -0.43945 q0.966796875 0 1.811523438 0.087890625 t1.6064 0.25879 t1.4746 0.40527 t1.416 0.52734 l0 3.2617 q-0.556640625 -0.302734375 -1.171875 -0.6005859375 t-1.3574 -0.53711 t-1.6309 -0.39063 t-2.002 -0.15137 q-1.708984375 0 -2.836914063 0.3515625 t-1.8018 0.9375 t-0.94727 1.3428 t-0.27344 1.5674 q0 0.537109375 0.1171875 1.059570313 t0.39063 0.98633 t0.71289 0.85449 t1.0938 0.67383 t1.5283 0.44434 t2.0166 0.16113 q1.11328125 0 2.001953125 -0.1416015625 t1.6309 -0.37598 t1.3574 -0.53223 t1.1719 -0.61035 l0 3.2617 l0 0 z M37.6270625 17.285175 q0 1.728515625 -0.634765625 3.051757813 t-1.8164 2.2119 t-2.8662 1.3428 t-3.7842 0.4541 t-3.7939 -0.4541 t-2.8857 -1.3428 t-1.8359 -2.2119 t-0.64453 -3.0518 t0.64453 -3.0518 t1.8359 -2.2119 t2.8857 -1.3428 t3.7939 -0.4541 t3.7842 0.4541 t2.8662 1.3428 t1.8164 2.2119 t0.63477 3.0518 z M33.9650625 17.285175 q0 -0.751953125 -0.2392578125 -1.499023438 t-0.84961 -1.3428 t-1.665 -0.9668 t-2.6855 -0.37109 q-1.09375 0 -1.923828125 0.1708984375 t-1.4355 0.47363 t-1.0156 0.70801 t-0.6543 0.86914 t-0.34668 0.9668 t-0.10254 0.99121 q0 0.498046875 0.1025390625 1.005859375 t0.34668 0.97168 t0.6543 0.86426 t1.0156 0.69824 t1.4355 0.46875 t1.9238 0.1709 q1.630859375 0 2.685546875 -0.37109375 t1.665 -0.9668 t0.84961 -1.3428 t0.23926 -1.499 z M57.363125 17.265575 q0 1.2890625 -0.283203125 2.290039063 t-0.7959 1.7432 t-1.2305 1.2598 t-1.5967 0.83008 t-1.8945 0.4541 t-2.1191 0.1416 l-8.5156 0 l0 -13.418 l8.4961 0 q1.103515625 0 2.119140625 0.1416015625 t1.8994 0.4541 t1.6064 0.8252 t1.2354 1.2598 t0.7959 1.7432 t0.2832 2.2754 z M53.711124999999996 17.265575 q0 -0.966796875 -0.2490234375 -1.6796875 t-0.80078 -1.1768 t-1.4404 -0.69336 t-2.168 -0.22949 l-4.502 0 l0 7.5781 l4.502 0 q1.279296875 0 2.16796875 -0.2294921875 t1.4404 -0.70313 t0.80078 -1.1865 t0.24902 -1.6797 z M75.625453125 23.320315 q-1.650390625 0.546875 -3.295898438 0.7861328125 t-3.3643 0.23926 q-2.197265625 0 -3.911132813 -0.4736328125 t-2.8857 -1.3721 t-1.7871 -2.1973 t-0.61523 -2.9395 q0 -1.5234375 0.6201171875 -2.827148438 t1.7578 -2.2656 t2.749 -1.5039 t3.5938 -0.54199 q1.826171875 0 3.344726563 0.4931640625 t2.6074 1.46 t1.6895 2.3828 t0.60059 3.2617 l0 0.89844 l-13.223 0 q0.17578125 0.634765625 0.5810546875 1.162109375 t1.0986 0.89844 t1.7041 0.57617 t2.417 0.20508 q0.99609375 0 1.953125 -0.1220703125 t1.7871 -0.32227 t1.499 -0.44434 t1.0791 -0.48828 l0 3.1348 z M73.125453125 16.064475 q-0.048828125 -0.498046875 -0.2978515625 -1.030273438 t-0.78613 -0.96191 t-1.4063 -0.70801 t-2.168 -0.27832 q-1.220703125 0 -2.109375 0.302734375 t-1.4893 0.75195 t-0.93262 0.9668 t-0.42969 0.95703 l9.6191 0 z M87.539021875 13.486375 l0 10.498 l-3.623 0 l0 -10.498 l-5.6934 0 l0 -2.9199 l15.02 0 l0 2.9199 l-5.7031 0 z M107.97815625 13.603375 q-0.146484375 -0.048828125 -0.4248046875 -0.1318359375 t-0.64941 -0.16602 t-0.81543 -0.1416 t-0.91309 -0.058594 q-0.9765625 0 -1.821289063 0.2392578125 t-1.5771 0.63477 t-1.3623 0.89844 t-1.1572 1.0303 l0 8.0762 l-3.623 0 l0 -13.418 l3.623 0 l0 2.1777 q0.654296875 -0.48828125 1.342773438 -0.9423828125 t1.4355 -0.80566 t1.5771 -0.56152 t1.7578 -0.20996 q0.3515625 0 0.7177734375 0.0341796875 t0.71289 0.083008 t0.64941 0.10742 t0.52734 0.11719 l0 3.0371 l0 0 z M126.210828125 18.828075 q0 1.30859375 -0.64453125 2.333984375 t-1.8311 1.7334 t-2.8711 1.0791 t-3.7744 0.37109 q-0.91796875 0 -1.928710938 -0.0732421875 t-1.9727 -0.20508 t-1.8018 -0.30273 t-1.416 -0.37598 l0 -3.1836 q0.625 0.263671875 1.391601563 0.498046875 t1.665 0.41504 t1.9287 0.2832 t2.1826 0.10254 q1.083984375 0 1.909179688 -0.126953125 t1.4307 -0.3418 t1.0059 -0.49316 t0.64453 -0.57617 t0.34668 -0.59082 t0.10254 -0.54688 l0 -1.1816 q-0.99609375 0.732421875 -2.373046875 1.206054688 t-3.1348 0.47363 q-2.041015625 0 -3.403320313 -0.3955078125 t-2.1826 -1.1426 t-1.167 -1.8213 t-0.34668 -2.4219 l0 -2.9785 l3.6426 0 l0 2.6172 q0 0.791015625 0.2099609375 1.40625 t0.66406 1.0303 t1.1768 0.62988 t1.748 0.21484 q0.869140625 0 1.645507813 -0.21484375 t1.4307 -0.56641 t1.1816 -0.80078 t0.9082 -0.91797 l0 -3.3984 l3.6328 0 l0 8.2617 z M129.306636875 23.984375 l0 -3.5156 l3.7012 0 l0 3.5156 l-3.7012 0 z M150.898671875 23.066405 q-0.703125 0.29296875 -1.416015625 0.52734375 t-1.4746 0.40527 t-1.6064 0.25879 t-1.8115 0.087891 q-2.05078125 0 -3.774414063 -0.439453125 t-2.9688 -1.3232 t-1.9385 -2.207 t-0.69336 -3.0908 t0.69336 -3.0908 t1.9385 -2.207 t2.9688 -1.3232 t3.7744 -0.43945 q0.966796875 0 1.811523438 0.087890625 t1.6064 0.25879 t1.4746 0.40527 t1.416 0.52734 l0 3.2617 q-0.556640625 -0.302734375 -1.171875 -0.6005859375 t-1.3574 -0.53711 t-1.6309 -0.39063 t-2.002 -0.15137 q-1.708984375 0 -2.836914063 0.3515625 t-1.8018 0.9375 t-0.94727 1.3428 t-0.27344 1.5674 q0 0.537109375 0.1171875 1.059570313 t0.39063 0.98633 t0.71289 0.85449 t1.0938 0.67383 t1.5283 0.44434 t2.0166 0.16113 q1.11328125 0 2.001953125 -0.1416015625 t1.6309 -0.37598 t1.3574 -0.53223 t1.1719 -0.61035 l0 3.2617 l0 0 z M157.900434375 18.242175 q0 0.83984375 0.15625 1.372070313 t0.50781 0.84473 t0.91309 0.42969 t1.3818 0.11719 l6.875 0 l0 2.9785 l-7.6172 0 q-1.58203125 0 -2.690429688 -0.2587890625 t-1.8115 -0.80078 t-1.0205 -1.3721 t-0.31738 -1.9727 l0 -9.0137 l3.623 0 l0 7.6758 z M174.19925625 10.566375 l0 7.5586 q0 0.751953125 0.126953125 1.362304688 t0.46875 1.0449 t0.95703 0.67383 t1.6016 0.23926 q0.7421875 0 1.557617188 -0.205078125 t1.6162 -0.54688 t1.5283 -0.78613 t1.3037 -0.92285 l0 -8.418 l3.6133 0 l0 13.418 l-3.6133 0 l0 -1.8359 q-0.68359375 0.390625 -1.455078125 0.7861328125 t-1.6406 0.71289 t-1.8457 0.51758 t-2.0605 0.2002 q-1.357421875 0 -2.431640625 -0.3271484375 t-1.8164 -0.92773 t-1.1377 -1.4551 t-0.39551 -1.9092 l0 -9.1797 l3.623 0 z M206.474265625 20.283175 q0 0.78125 -0.205078125 1.357421875 t-0.57129 0.99121 t-0.87891 0.67383 t-1.1328 0.41016 t-1.3232 0.20996 t-1.4551 0.058594 l-9.7363 0 l0 -13.418 l9.5605 0 q0.576171875 0 1.157226563 0.048828125 t1.1084 0.18066 t0.98145 0.36621 t0.79102 0.61523 t0.52734 0.91797 t0.19043 1.2695 q0 1.30859375 -0.64453125 2.075195313 t-2.0313 1.0205 q0.9765625 0.068359375 1.674804688 0.2978515625 t1.1377 0.625 t0.64453 0.9668 t0.20508 1.333 z M201.953265625 14.540975 q0 -0.25390625 -0.078125 -0.4833984375 t-0.2832 -0.40527 t-0.55664 -0.2832 t-0.89844 -0.10742 l-5.3418 0 l0 2.5195 l5.3418 0 q0.546875 0 0.8984375 -0.09765625 t0.55664 -0.26367 t0.2832 -0.39551 t0.078125 -0.4834 z M202.793265625 19.863275 q0 -0.458984375 -0.15625 -0.7373046875 t-0.48828 -0.42969 t-0.85938 -0.2002 t-1.2598 -0.048828 l-5.2344 0 l0 2.8418 l5.2344 0 q0.732421875 0 1.259765625 -0.048828125 t0.85938 -0.20508 t0.48828 -0.43457 t0.15625 -0.7373 z"></path>
    </g>
</svg>